<svg xmlns="http://www.w3.org/2000/svg" version="1.1" xmlns:xlink="http://www.w3.org/1999/xlink" xmlns:svgjs="http://svgjs.com/svgjs" width="1000" height="1000"><rect width="1000" height="1000" rx="200" ry="200" fill="#555555"></rect><g transform="matrix(25,0,0,25,100.24893188476562,99.90009307861328)"><svg xmlns="http://www.w3.org/2000/svg" version="1.1" xmlns:xlink="http://www.w3.org/1999/xlink" xmlns:svgjs="http://svgjs.com/svgjs" width="32" height="32"><svg width="32" height="32" xmlns="http://www.w3.org/2000/svg" xmlns:xlink="http://www.w3.org/1999/xlink" xml:space="preserve" overflow="hidden"><defs><clipPath id="clip0"><rect x="37" y="8" width="32" height="32"></rect></clipPath></defs><g clip-path="url(#clip0)" transform="translate(-37 -8)"><path d="M63.2 18.4667C67.5333 13.6 65.9667 11.9 65.9667 11.9 65.4333 11.3667 64.6 11.3667 64.0667 11.9L51.4333 24.5333 40.4333 34.8C39.6667 35.5667 39.6667 36.8333 40.4333 37.6333 41.2 38.4 42.4667 38.4 43.2667 37.6333L53.3 26.6333C53.8 26.8667 55.1333 27.5333 55.5333 27.1L63.2 18.4667Z" fill="#D9D1CC"></path><path d="M66.6 34.8 57.8333 26.5 56.5 28C56.2667 28.2333 55.8667 28.5333 55.2333 28.5667L63.8 37.6333C64.6 38.4 65.8667 38.4 66.6333 37.6333 67.3667 36.8333 67.3667 35.5667 66.6 34.8Z" fill="#D9D1CC"></path><path d="M48.9667 23.8667C48.9667 23.8667 49.5667 23.7333 50.2333 23.8333L50.5 23.5667 52.8 21.2667C52.7 20.6333 52.8333 20 52.8333 20 53.0667 18.5667 52.5 16.9 50.8 15.2 48 12.4 44 9.8 44 9.8L43.4 10.4 50.1333 17.1333C50.3333 17.3333 50.3333 17.6333 50.1333 17.8333 49.9333 18.0333 49.6333 18.0333 49.4333 17.8333L42.7 11.1 41.7667 12.0333 48.5 18.7667C48.7 18.9667 48.7 19.2667 48.5 19.4667 48.3 19.6667 48 19.6667 47.8 19.4667L41.0667 12.7333 40.1333 13.6667 46.8667 20.4C47.0667 20.6 47.0667 20.9 46.8667 21.1 46.6667 21.3 46.3667 21.3 46.1667 21.1L39.4 14.4 38.8 15C38.8 15 41.6333 19.2667 44.1667 21.8333 45.8667 23.5333 47.5333 24.1 48.9667 23.8667Z" fill="#D9D1CC"></path></g></svg></svg></g></svg>