<svg width="20" height="21" xmlns="http://www.w3.org/2000/svg" xmlns:xlink="http://www.w3.org/1999/xlink" xml:space="preserve" overflow="hidden"><defs><clipPath id="clip0"><rect x="1213" y="78" width="20" height="21"/></clipPath></defs><g clip-path="url(#clip0)" transform="translate(-1213 -78)"><path d="M14.8542 12.8958C14.3958 12.4375 13.6458 12.4583 13.0833 12.8958L12.2083 12.0208C14.4792 9.5625 14.3333 5.75 11.875 3.47917 9.41667 1.20833 5.625 1.375 3.35417 3.83333 1.08333 6.29167 1.25 10.1042 3.6875 12.375 6.02083 14.5417 9.625 14.5208 11.9375 12.3333L12.8125 13.2083C12.625 13.4375 12.5208 13.7292 12.4792 14.0208 12.4375 14.375 12.5625 14.7292 12.8125 14.9792L15.75 17.9167C15.9792 18.125 16.2708 18.25 16.5833 18.25 17 18.25 17.375 18.0833 17.6667 17.7917 17.9375 17.5417 18.1042 17.1875 18.125 16.8125 18.1667 16.4583 18.0417 16.1042 17.7917 15.8542L14.8542 12.8958ZM3.83333 11.8958C1.64583 9.70833 1.64583 6.14583 3.83333 3.9375 6.02083 1.72917 9.58333 1.75 11.7917 3.9375 14 6.125 13.9792 9.6875 11.7917 11.8958 10.7292 12.9583 9.3125 13.5417 7.8125 13.5417 6.33333 13.5417 4.89583 12.9583 3.83333 11.8958ZM17.3542 17.4583C16.9583 17.8542 16.3542 17.9167 16.0208 17.5833L13.1042 14.6667C12.9375 14.5 12.875 14.2708 12.8958 14.0417 12.9167 13.7708 13.0417 13.5208 13.25 13.3333 13.4583 13.125 13.75 13 14.0417 12.9792 14.25 12.9792 14.4375 13.0417 14.5833 13.1875L17.5 16.125C17.6667 16.2917 17.7292 16.5208 17.7083 16.75 17.6667 17.0208 17.5625 17.2708 17.3542 17.4583 17.3542 17.4583 17.3542 17.4583 17.3542 17.4583Z" fill="#E6D5BC" transform="matrix(1 0 0 1.05 1213 78)"/></g></svg>