<svg width="24" height="24" xmlns="http://www.w3.org/2000/svg" xmlns:xlink="http://www.w3.org/1999/xlink" xml:space="preserve" overflow="hidden"><defs><clipPath id="clip0"><rect x="35" y="676" width="24" height="24"/></clipPath></defs><g clip-path="url(#clip0)" transform="translate(-35 -676)"><path d="M44.825 678.95C44.325 679.2 43.875 679.525 43.45 679.875 41.1 681.95 41 686.25 41 686.25L37.25 686.25C38.275 687.3 38.025 687.275 43 692.25 43 692.25 48.225 687.275 49.25 686.25L45.4 686.25C45.4 686.25 45.4 682.25 48.7 682.25 52.325 682.25 52.25 688.25 52.25 688.25L53 698C53 698 54.125 691.15 54.05 684.725 54 680.025 49.05 676.825 44.825 678.95Z" fill="#E6D5BC"/></g></svg>