<svg width="20" height="20" xmlns="http://www.w3.org/2000/svg" xmlns:xlink="http://www.w3.org/1999/xlink" xml:space="preserve" overflow="hidden"><defs><clipPath id="clip0"><rect x="1243" y="17" width="20" height="20"/></clipPath></defs><g clip-path="url(#clip0)" transform="translate(-1243 -17)"><path d="M1259.46 29.0417C1259.52 27.1042 1259.46 25.3333 1258.42 23.625 1257.25 21.7083 1255.4 20.2917 1253.15 20.0208 1250.9 19.75 1248.62 20.3333 1246.77 21.625 1245.19 22.7917 1243.83 24.8958 1243.83 26.9167 1244.08 25.375 1244.96 24 1246.27 23.125 1247.58 22.25 1249.19 21.9792 1250.71 22.3542 1252.15 22.6875 1253.33 23.7917 1254.12 25.0208 1254.92 26.25 1254.88 27.625 1254.88 29.0417L1252.17 29.0417 1257.17 34.0417C1257.17 34.0417 1261.31 29.8958 1262.17 29.0417L1259.46 29.0417Z" fill="#E6D5BC"/></g></svg>